<svg id="visual" viewBox="0 0 900 600" width="900" height="600" xmlns="http://www.w3.org/2000/svg" xmlns:xlink="http://www.w3.org/1999/xlink" version="1.1"><path d="M0 127L450 181L900 139L900 0L450 0L0 0Z" fill="#00cc8e"></path><path d="M0 199L450 265L900 259L900 137L450 179L0 125Z" fill="#00c48c"></path><path d="M0 295L450 343L900 361L900 257L450 263L0 197Z" fill="#00bc8a"></path><path d="M0 331L450 385L900 391L900 359L450 341L0 293Z" fill="#00b388"></path><path d="M0 373L450 433L900 421L900 389L450 383L0 329Z" fill="#00ab85"></path><path d="M0 415L450 475L900 445L900 419L450 431L0 371Z" fill="#00a382"></path><path d="M0 451L450 499L900 457L900 443L450 473L0 413Z" fill="#009b7f"></path><path d="M0 481L450 541L900 535L900 455L450 497L0 449Z" fill="#00937b"></path><path d="M0 517L450 571L900 553L900 533L450 539L0 479Z" fill="#008b77"></path><path d="M0 601L450 601L900 601L900 551L450 569L0 515Z" fill="#038373"></path></svg>