<svg id="visual" viewBox="0 0 900 600" width="900" height="600" xmlns="http://www.w3.org/2000/svg" xmlns:xlink="http://www.w3.org/1999/xlink" version="1.1"><rect x="0" y="0" width="900" height="600" fill="#002233"></rect><path d="M0 250L4.8 277.3C9.7 304.7 19.3 359.3 29 374C38.7 388.7 48.3 363.3 58 352C67.7 340.7 77.3 343.3 87 314.7C96.7 286 106.3 226 116 246.3C125.7 266.7 135.3 367.3 145 402.8C154.7 438.3 164.3 408.7 174 404.7C183.7 400.7 193.3 422.3 203 430.3C212.7 438.3 222.3 432.7 232 420.8C241.7 409 251.3 391 261 364C270.7 337 280.3 301 290 258.8C299.7 216.7 309.3 168.3 319 167C328.7 165.7 338.3 211.3 348 250.5C357.7 289.7 367.3 322.3 377 334C386.7 345.7 396.3 336.3 406 343.5C415.7 350.7 425.3 374.3 435.2 358.5C445 342.7 455 287.3 464.8 282.7C474.7 278 484.3 324 494 319.7C503.7 315.3 513.3 260.7 523 238.3C532.7 216 542.3 226 552 247.5C561.7 269 571.3 302 581 337.5C590.7 373 600.3 411 610 416.7C619.7 422.3 629.3 395.7 639 389C648.7 382.3 658.3 395.7 668 389.3C677.7 383 687.3 357 697 351.5C706.7 346 716.3 361 726 341C735.7 321 745.3 266 755 246C764.7 226 774.3 241 784 244.8C793.7 248.7 803.3 241.3 813 2
57.8C822.7 274.3 832.3 314.7 842 318.8C851.7 323 861.3 291 871 299.7C880.7 308.3 890.3 357.7 895.2 382.3L900 407L900 601L895.2 601C890.3 601 880.7 601 871 601C861.3 601 851.7 601 842 601C832.3 601 822.7 601 813 601C803.3 601 793.7 601 784 601C774.3 601 764.7 601 755 601C745.3 601 735.7 601 726 601C716.3 601 706.7 601 697 601C687.3 601 677.7 601 668 601C658.3 601 648.7 601 639 601C629.3 601 619.7 601 610 601C600.3 601 590.7 601 581 601C571.3 601 561.7 601 552 601C542.3 601 532.7 601 523 601C513.3 601 503.7 601 494 601C484.3 601 474.7 601 464.8 601C455 601 445 601 435.2 601C425.3 601 415.7 601 406 601C396.3 601 386.7 601 377 601C367.3 601 357.7 601 348 601C338.3 601 328.7 601 319 601C309.3 601 299.7 601 290 601C280.3 601 270.7 601 261 601C251.3 601 241.7 601 232 601C222.3 601 212.7 601 203 601C193.3 601 183.7 601 174 601C164.3 601 154.7 601 145 601C135.3 601 125.7 601 116 601C106.3 601 96.7 601 87 601C77.3 601 67.7 601 58 601C48.3 601 38.7 601 29 601C19.3 601 9.7 601 4.8 601L0 601Z" fill="#0066FF" stroke-linecap="round" stroke-linejoin="miter"></path></svg>